<?xml version="1.0" encoding="UTF-8" standalone="no"?>
<!-- Generator: Adobe Illustrator 19.0.0, SVG Export Plug-In . SVG Version: 6.00 Build 0)  -->

<svg
   version="1.1"
   id="Layer_2"
   x="0px"
   y="0px"
   viewBox="0 0 999.99999 405"
   enable-background="new 0 0 7127.6 2890"
   xml:space="preserve"
   sodipodi:docname="apache.svg"
   width="1000"
   height="405"
   inkscape:version="1.2.1 (9c6d41e410, 2022-07-14)"
   xmlns:inkscape="http://www.inkscape.org/namespaces/inkscape"
   xmlns:sodipodi="http://sodipodi.sourceforge.net/DTD/sodipodi-0.dtd"
   xmlns="http://www.w3.org/2000/svg"
   xmlns:svg="http://www.w3.org/2000/svg"><defs
   id="defs524" /><sodipodi:namedview
   id="namedview522"
   pagecolor="#505050"
   bordercolor="#eeeeee"
   borderopacity="1"
   inkscape:showpageshadow="0"
   inkscape:pageopacity="0"
   inkscape:pagecheckerboard="0"
   inkscape:deskcolor="#505050"
   showgrid="false"
   inkscape:zoom="1.4828633"
   inkscape:cx="527.02093"
   inkscape:cy="194.89322"
   inkscape:window-width="3840"
   inkscape:window-height="2050"
   inkscape:window-x="-12"
   inkscape:window-y="-12"
   inkscape:window-maximized="1"
   inkscape:current-layer="Layer_2" />




























<linearGradient
   id="SVGID_1_"
   gradientUnits="userSpaceOnUse"
   x1="-4516.6152"
   y1="-2338.7222"
   x2="-4108.4111"
   y2="-1861.3982"
   gradientTransform="matrix(0.20811457,-0.44631858,0.44631858,0.20811457,2520.3617,-1408.414)">
	<stop
   offset="0"
   style="stop-color:#F69923"
   id="stop385" />
	<stop
   offset="0.3123"
   style="stop-color:#F79A23"
   id="stop387" />
	<stop
   offset="0.8383"
   style="stop-color:#E97826"
   id="stop389" />
</linearGradient>









<linearGradient
   id="SVGID_2_"
   gradientUnits="userSpaceOnUse"
   x1="-7537.7339"
   y1="-2391.4075"
   x2="-4625.4141"
   y2="-2391.4075"
   gradientTransform="matrix(0.20811457,-0.44631858,0.44631858,0.20811457,2520.3617,-1408.414)">
	<stop
   offset="0.3233"
   style="stop-color:#9E2064"
   id="stop410" />
	<stop
   offset="0.6302"
   style="stop-color:#C92037"
   id="stop412" />
	<stop
   offset="0.7514"
   style="stop-color:#CD2335"
   id="stop414" />
	<stop
   offset="1"
   style="stop-color:#E97826"
   id="stop416" />
</linearGradient>

<linearGradient
   id="SVGID_3_"
   gradientUnits="userSpaceOnUse"
   x1="-7186.1777"
   y1="-2099.3059"
   x2="-5450.7183"
   y2="-2099.3059"
   gradientTransform="matrix(0.20811457,-0.44631858,0.44631858,0.20811457,2520.3617,-1408.414)">
	<stop
   offset="0"
   style="stop-color:#282662"
   id="stop421" />
	<stop
   offset="9.548390e-02"
   style="stop-color:#662E8D"
   id="stop423" />
	<stop
   offset="0.7882"
   style="stop-color:#9F2064"
   id="stop425" />
	<stop
   offset="0.9487"
   style="stop-color:#CD2032"
   id="stop427" />
</linearGradient>

<linearGradient
   id="SVGID_4_"
   gradientUnits="userSpaceOnUse"
   x1="-7374.1626"
   y1="-2418.5454"
   x2="-4461.8428"
   y2="-2418.5454"
   gradientTransform="matrix(0.20811457,-0.44631858,0.44631858,0.20811457,2520.3617,-1408.414)">
	<stop
   offset="0.3233"
   style="stop-color:#9E2064"
   id="stop432" />
	<stop
   offset="0.6302"
   style="stop-color:#C92037"
   id="stop434" />
	<stop
   offset="0.7514"
   style="stop-color:#CD2335"
   id="stop436" />
	<stop
   offset="1"
   style="stop-color:#E97826"
   id="stop438" />
</linearGradient>

<linearGradient
   id="SVGID_5_"
   gradientUnits="userSpaceOnUse"
   x1="-7161.7642"
   y1="-2379.1431"
   x2="-5631.2524"
   y2="-2379.1431"
   gradientTransform="matrix(0.20811457,-0.44631858,0.44631858,0.20811457,2520.3617,-1408.414)">
	<stop
   offset="0"
   style="stop-color:#282662"
   id="stop443" />
	<stop
   offset="9.548390e-02"
   style="stop-color:#662E8D"
   id="stop445" />
	<stop
   offset="0.7882"
   style="stop-color:#9F2064"
   id="stop447" />
	<stop
   offset="0.9487"
   style="stop-color:#CD2032"
   id="stop449" />
</linearGradient>

<linearGradient
   id="SVGID_6_"
   gradientUnits="userSpaceOnUse"
   x1="-7374.1626"
   y1="-2117.1309"
   x2="-4461.8428"
   y2="-2117.1309"
   gradientTransform="matrix(0.20811457,-0.44631858,0.44631858,0.20811457,2520.3617,-1408.414)">
	<stop
   offset="0.3233"
   style="stop-color:#9E2064"
   id="stop454" />
	<stop
   offset="0.6302"
   style="stop-color:#C92037"
   id="stop456" />
	<stop
   offset="0.7514"
   style="stop-color:#CD2335"
   id="stop458" />
	<stop
   offset="1"
   style="stop-color:#E97826"
   id="stop460" />
</linearGradient>

<linearGradient
   id="SVGID_7_"
   gradientUnits="userSpaceOnUse"
   x1="-7554.8232"
   y1="-2132.0981"
   x2="-4642.5034"
   y2="-2132.0981"
   gradientTransform="matrix(0.20811457,-0.44631858,0.44631858,0.20811457,2520.3617,-1408.414)">
	<stop
   offset="0.3233"
   style="stop-color:#9E2064"
   id="stop465" />
	<stop
   offset="0.6302"
   style="stop-color:#C92037"
   id="stop467" />
	<stop
   offset="0.7514"
   style="stop-color:#CD2335"
   id="stop469" />
	<stop
   offset="1"
   style="stop-color:#E97826"
   id="stop471" />
</linearGradient>



<linearGradient
   id="SVGID_8_"
   gradientUnits="userSpaceOnUse"
   x1="-7374.1626"
   y1="-2027.484"
   x2="-4461.8433"
   y2="-2027.484"
   gradientTransform="matrix(0.20811457,-0.44631858,0.44631858,0.20811457,2520.3617,-1408.414)">
	<stop
   offset="0.3233"
   style="stop-color:#9E2064"
   id="stop480" />
	<stop
   offset="0.6302"
   style="stop-color:#C92037"
   id="stop482" />
	<stop
   offset="0.7514"
   style="stop-color:#CD2335"
   id="stop484" />
	<stop
   offset="1"
   style="stop-color:#E97826"
   id="stop486" />
</linearGradient>



<linearGradient
   id="SVGID_9_"
   gradientUnits="userSpaceOnUse"
   x1="-7374.1626"
   y1="-2037.7417"
   x2="-4461.8433"
   y2="-2037.7417"
   gradientTransform="matrix(0.20811457,-0.44631858,0.44631858,0.20811457,2520.3617,-1408.414)">
	<stop
   offset="0.3233"
   style="stop-color:#9E2064"
   id="stop495" />
	<stop
   offset="0.6302"
   style="stop-color:#C92037"
   id="stop497" />
	<stop
   offset="0.7514"
   style="stop-color:#CD2335"
   id="stop499" />
	<stop
   offset="1"
   style="stop-color:#E97826"
   id="stop501" />
</linearGradient>



<linearGradient
   id="SVGID_10_"
   gradientUnits="userSpaceOnUse"
   x1="-5738.0635"
   y1="-2039.799"
   x2="-5094.3457"
   y2="-2039.799"
   gradientTransform="matrix(0.20811457,-0.44631858,0.44631858,0.20811457,2520.3617,-1408.414)">
	<stop
   offset="0.3233"
   style="stop-color:#9E2064"
   id="stop510" />
	<stop
   offset="0.6302"
   style="stop-color:#C92037"
   id="stop512" />
	<stop
   offset="0.7514"
   style="stop-color:#CD2335"
   id="stop514" />
	<stop
   offset="1"
   style="stop-color:#E97826"
   id="stop516" />
</linearGradient>
<g
   id="g695"
   transform="matrix(0.28344671,0,0,0.28344671,0,-0.00582411)"><path
     fill="#6d6e71"
     d="m 3498.7969,417.50542 c 7.5347,7.53467 11.2775,16.59597 11.2775,27.18391 0,10.58794 -3.7428,19.64926 -11.2775,27.28242 -7.5347,7.58392 -16.6452,11.37588 -27.3809,11.37588 -10.7356,0 -19.7969,-3.74271 -27.2824,-11.27739 -7.4362,-7.53467 -11.1789,-16.59598 -11.1789,-27.18392 0,-10.58793 3.7427,-19.64925 11.2774,-27.28241 7.5347,-7.58392 16.596,-11.37588 27.2824,-11.37588 10.6372,0 19.7477,3.74272 27.2824,11.27739 z m -3.2502,51.26532 c 6.5498,-6.69748 9.8492,-14.67537 9.8492,-23.98291 0,-9.30754 -3.2502,-17.23618 -9.7507,-23.88442 -6.5005,-6.599 -14.4784,-9.8985 -23.9337,-9.8985 -9.4553,0 -17.4331,3.2995 -23.9829,9.94775 -6.5498,6.64824 -9.8,14.62612 -9.8,23.98291 0,9.35678 3.2502,17.33467 9.7015,23.93367 6.4513,6.59899 14.4292,9.89849 23.8844,9.89849 9.4553,0 17.4332,-3.34875 24.0322,-9.99699 z m -5.4171,-31.41909 c 0,6.89447 -3.004,11.22814 -9.0613,13.001 l 11.0804,15.02011 h -8.9628 l -9.997,-13.93669 h -9.1598 v 13.93669 h -7.2392 v -41.66231 h 15.6603 c 6.3035,0 10.8342,1.08341 13.592,3.25024 2.7578,2.16684 4.0874,5.61408 4.0874,10.39096 z m -9.3075,5.8603 c 1.4774,-1.18191 2.1668,-3.201 2.1668,-5.90955 0,-2.70854 -0.7387,-4.62914 -2.2161,-5.71256 -1.4774,-1.08342 -4.1366,-1.57588 -7.8794,-1.57588 h -8.8643 v 15.0201 h 8.6181 c 3.989,-0.0492 6.7467,-0.6402 8.1749,-1.82211 z"
     id="path329"
     style="stroke-width:0.492462" /><path
     fill="#6d6e71"
     d="m 888.20503,246.12854 v 76.52864 h -9.84926 v -76.52864 h -27.97188 v -9.45528 h 65.94072 v 9.45528 z"
     id="path331"
     style="stroke-width:0.492462" /><path
     fill="#6d6e71"
     d="m 1025.405,322.65718 v -37.87035 h -51.807 v 37.87035 h -9.84927 v -86.03317 h 9.84927 v 38.85528 h 51.807 v -38.85528 h 9.8493 v 86.03317 z"
     id="path333"
     style="stroke-width:0.492462" /><path
     fill="#6d6e71"
     d="m 1103.805,246.12854 v 28.26733 h 43.386 v 9.45528 h -43.386 v 29.44925 h 50.1327 v 9.35678 h -59.9819 v -86.03317 h 58.406 v 9.45528 h -48.5568 z"
     id="path335"
     style="stroke-width:0.492462" /><path
     fill="#d22128"
     d="M 775.38193,912.23305 980.88645,420.95266 h 39.44615 l 205.5046,491.28039 h -51.9055 L 1110.2562,758.63407 H 889.53467 L 826.54875,912.23305 Z M 1000.9789,477.68431 899.97485,720.56671 h 199.29945 z"
     id="path337"
     style="stroke-width:0.492462" /><path
     fill="#d22128"
     d="M 1278.8753,912.23305 V 420.95266 h 203.4363 c 84.408,0 145.3256,78.20301 145.3256,154.28843 0,80.27139 -56.7317,155.66733 -141.1397,155.66733 h -159.8533 v 181.2754 h -47.7689 z m 47.7689,-224.2181 h 157.0462 c 58.1106,0 95.4885,-53.28442 95.4885,-112.77386 0,-61.60703 -45.6513,-111.39497 -99.6251,-111.39497 h -152.9096 z"
     id="path339"
     style="stroke-width:0.492462" /><path
     fill="#d22128"
     d="m 1600.7487,912.23305 205.5046,-491.28039 h 39.4462 l 205.5045,491.28039 h -51.9055 l -63.6754,-153.59898 h -220.7216 l -62.9859,153.59898 z m 225.597,-434.54874 -101.004,242.8824 h 199.2995 z"
     id="path341"
     style="stroke-width:0.492462" /><path
     fill="#d22128"
     d="m 2283.6955,418.14562 c 87.1658,0 150.8411,44.27236 181.2753,107.25829 l -38.7567,23.5397 c -31.1237,-65.05427 -92.0413,-87.16583 -145.3257,-87.16583 -117.6492,0 -181.9648,105.18995 -181.9648,204.12564 0,108.6372 79.5819,206.88339 184.0331,206.88339 55.3528,0 120.4071,-27.67636 151.5307,-91.35178 l 40.1357,20.73272 c -31.8131,73.32763 -119.0282,114.15274 -194.4241,114.15274 -134.9347,0 -229.7337,-128.68042 -229.7337,-253.2241 0.049,-118.28947 85.1467,-244.95077 233.2302,-244.95077 z"
     id="path343"
     style="stroke-width:0.492462" /><path
     fill="#d22128"
     d="m 2929.7075,420.95266 v 491.28039 h -48.4583 V 682.4994 h -291.2914 v 229.73365 h -47.7196 V 420.95266 h 47.7196 v 218.65327 h 291.2914 V 420.95266 Z"
     id="path345"
     style="stroke-width:0.492462" /><path
     fill="#d22128"
     d="m 3370.7075,869.29035 v 42.89347 H 3040.6593 V 420.95266 h 323.8432 v 42.89346 H 3088.4281 V 640.9848 h 240.8141 v 40.82517 h -240.8141 v 187.52961 h 282.2794 z"
     id="path347"
     style="stroke-width:0.492462" /><path
     fill="#6d6e71"
     d="m 821.23013,1016.2411 c 5.81106,1.7236 10.93268,4.0874 15.26635,6.993 l -5.07239,11.1296 c -4.43213,-2.9547 -9.15977,-5.1216 -14.23217,-6.599 -5.02309,-1.4281 -9.8492,-2.1668 -14.37985,-2.1668 -6.69749,0 -12.06533,1.1819 -16.05431,3.5949 -3.98891,2.4131 -6.00805,5.8111 -6.00805,10.194 0,3.7427 1.13271,6.8945 3.34878,9.3568 2.21606,2.4623 5.02309,4.3829 8.37187,5.7618 3.34871,1.3789 7.92865,2.9548 13.78894,4.7277 7.09147,2.2653 12.804,4.3829 17.08843,6.3527 4.33366,1.9698 8.02712,4.8754 11.08038,8.7659 3.05332,3.8412 4.57995,8.9627 4.57995,15.2663 0,5.7618 -1.57593,10.7356 -4.67841,15.0693 -3.10249,4.2844 -7.53468,7.6332 -13.19798,9.997 -5.7126,2.3638 -12.26232,3.5457 -19.69853,3.5457 -7.43616,0 -14.62608,-1.4281 -21.61908,-4.2844 -6.99294,-2.8563 -13.00099,-6.6975 -18.02409,-11.5236 l 5.26932,-10.6372 c 4.72764,4.6291 10.19395,8.2241 16.39899,10.785 6.20504,2.5608 12.21309,3.8411 18.12261,3.8411 7.53468,0 13.4442,-1.4773 17.77787,-4.3829 4.33372,-2.9055 6.50055,-6.8452 6.50055,-11.7698 0,-3.8412 -1.13271,-7.0422 -3.398,-9.5538 -2.26536,-2.5115 -5.07239,-4.4321 -8.42111,-5.8603 -3.34877,-1.3789 -7.92865,-2.9548 -13.78894,-4.7276 -6.993,-2.0683 -12.6563,-4.0875 -17.0392,-6.0081 -4.38289,-1.9206 -8.07641,-4.7769 -11.08044,-8.6181 -3.00396,-3.7919 -4.53065,-8.8151 -4.53065,-15.0693 0,-5.3678 1.47739,-10.0462 4.43219,-14.0844 2.95479,-4.0382 7.18993,-7.19 12.607,-9.406 5.46637,-2.2162 11.72065,-3.3488 18.81211,-3.3488 6.05728,0.049 11.91757,0.9357 17.77786,2.6593 z"
     id="path349"
     style="stroke-width:0.492462" /><path
     fill="#6d6e71"
     d="m 975.12463,1020.7717 c 8.27334,4.6292 14.87236,10.9819 19.69847,18.9106 4.82617,7.9779 7.2885,16.6944 7.2885,26.2483 0,9.6029 -2.4131,18.418 -7.2885,26.3959 -4.82611,8.0271 -11.42513,14.3307 -19.69847,19.009 -8.27341,4.6785 -17.38395,7.0423 -27.18392,7.0423 -9.99702,0 -19.10756,-2.3146 -27.43014,-7.0423 -8.2734,-4.6783 -14.87236,-11.0311 -19.69853,-19.009 -4.82611,-8.0271 -7.28846,-16.793 -7.28846,-26.3959 0,-9.6031 2.41312,-18.3689 7.28846,-26.3468 4.82617,-7.9779 11.42513,-14.2814 19.69853,-18.8613 8.27335,-4.6291 17.43312,-6.8945 27.43014,-6.8945 9.79997,-0.049 18.86128,2.2654 27.18392,6.9437 z m -48.35979,9.8001 c -6.45126,3.6442 -11.62211,8.6181 -15.46333,14.823 -3.84122,6.2051 -5.81106,13.0503 -5.81106,20.5358 0,7.5346 1.92061,14.4291 5.81106,20.6834 3.84122,6.2542 9.01207,11.2281 15.46333,14.8723 6.4512,3.6443 13.49344,5.4664 21.12658,5.4664 7.6332,0 14.62614,-1.8221 21.02817,-5.4664 6.40203,-3.6442 11.47436,-8.5688 15.31557,-14.8723 3.79199,-6.2543 5.7126,-13.1488 5.7126,-20.6834 0,-7.5347 -1.92061,-14.38 -5.7126,-20.585 -3.79198,-6.205 -8.91354,-11.1296 -15.31557,-14.7738 -6.40203,-3.6443 -13.39497,-5.5156 -20.97888,-5.5156 -7.6332,0 -14.67537,1.8221 -21.17587,5.5156 z"
     id="path351"
     style="stroke-width:0.492462" /><path
     fill="#6d6e71"
     d="m 1076.7688,1025.4994 v 36.4422 h 48.4583 v 11.4251 h -48.4583 v 44.4201 h -11.8683 v -103.7126 h 65.8915 v 11.4252 z"
     id="path353"
     style="stroke-width:0.492462" /><path
     fill="#6d6e71"
     d="m 1227.0191,1025.4994 v 92.2874 h -11.8683 v -92.2874 h -33.6845 v -11.4252 h 79.4834 v 11.4252 z"
     id="path355"
     style="stroke-width:0.492462" /><path
     fill="#6d6e71"
     d="m 1414.2532,1117.7868 -27.9718,-87.3628 -28.3658,87.3628 h -12.0654 l -34.7185,-103.7126 h 12.7547 l 28.5136,89.9729 28.1196,-89.8251 11.8683,-0.1478 28.4151,89.9729 28.1196,-89.9729 h 12.3116 l -34.7679,103.7126 z"
     id="path357"
     style="stroke-width:0.492462" /><path
     fill="#6d6e71"
     d="m 1520.3789,1091.5878 -11.5729,26.199 h -12.607 l 46.4884,-103.7126 h 12.3116 l 46.3407,103.7126 h -12.8533 l -11.5729,-26.199 z m 28.1688,-64.0201 -23.0964,52.595 h 46.4884 z"
     id="path359"
     style="stroke-width:0.492462" /><path
     fill="#6d6e71"
     d="m 1704.4613,1084.7426 c -2.9548,0.197 -5.2694,0.2955 -6.9437,0.2955 h -27.5779 v 32.7487 h -11.8191 v -103.7126 h 39.397 c 12.9025,0 22.9487,3.0533 30.1386,9.1106 7.1407,6.0573 10.7357,14.6754 10.7357,25.7558 0,8.4703 -2.019,15.611 -6.008,21.3236 -3.9889,5.7125 -9.7508,9.8492 -17.2362,12.3116 l 24.2292,35.211 h -13.4443 z m 14.8724,-17.2854 c 5.0723,-4.1367 7.6331,-10.2433 7.6331,-18.2212 0,-7.8301 -2.5608,-13.7396 -7.6331,-17.7286 -5.0724,-3.9889 -12.3609,-6.008 -21.8161,-6.008 h -27.5779 v 48.1628 h 27.5779 c 9.4552,0 16.7437,-2.0683 21.8161,-6.205 z"
     id="path361"
     style="stroke-width:0.492462" /><path
     fill="#6d6e71"
     d="m 1816.3487,1025.4994 v 34.0784 h 52.2995 v 11.4251 h -52.2995 v 35.5065 h 60.4744 v 11.2774 h -72.3427 v -103.7126 h 70.3728 v 11.4252 z"
     id="path363"
     style="stroke-width:0.492462" /><path
     fill="#6d6e71"
     d="m 2042.2412,1025.4994 v 36.4422 h 48.4583 v 11.4251 h -48.4583 v 44.4201 h -11.8684 v -103.7126 h 65.8915 v 11.4252 z"
     id="path365"
     style="stroke-width:0.492462" /><path
     fill="#6d6e71"
     d="m 2227.5547,1020.7717 c 8.2734,4.6292 14.8724,10.9819 19.6986,18.9106 4.8261,7.9779 7.2884,16.6944 7.2884,26.2483 0,9.6029 -2.4131,18.418 -7.2884,26.3959 -4.8262,8.0271 -11.4252,14.3307 -19.6986,19.009 -8.2733,4.6785 -17.3839,7.0423 -27.1839,7.0423 -9.997,0 -19.1075,-2.3146 -27.4301,-7.0423 -8.2734,-4.6783 -14.8724,-11.0311 -19.6985,-19.009 -4.8262,-8.0271 -7.2885,-16.793 -7.2885,-26.3959 0,-9.6031 2.4131,-18.3689 7.2885,-26.3468 4.8261,-7.9779 11.4251,-14.2814 19.6985,-18.8613 8.2734,-4.6291 17.4331,-6.8945 27.4301,-6.8945 9.8493,-0.049 18.9106,2.2654 27.1839,6.9437 z m -48.3105,9.8001 c -6.4512,3.6442 -11.6221,8.6181 -15.4633,14.823 -3.8412,6.2051 -5.8111,13.0503 -5.8111,20.5358 0,7.5346 1.9206,14.4291 5.8111,20.6834 3.8412,6.2542 9.0121,11.2281 15.4633,14.8723 6.4512,3.6443 13.4935,5.4664 21.1266,5.4664 7.6332,0 14.6261,-1.8221 21.0282,-5.4664 6.402,-3.6442 11.4743,-8.5688 15.3156,-14.8723 3.7919,-6.2543 5.7125,-13.1488 5.7125,-20.6834 0,-7.5347 -1.9206,-14.38 -5.7125,-20.585 -3.792,-6.205 -8.9136,-11.1296 -15.3156,-14.7738 -6.4021,-3.6443 -13.395,-5.5156 -20.9789,-5.5156 -7.6824,0 -14.7247,1.8221 -21.1759,5.5156 z"
     id="path367"
     style="stroke-width:0.492462" /><path
     fill="#6d6e71"
     d="m 2390.7567,1106.9034 c -7.7316,7.6332 -18.3688,11.4744 -31.9115,11.4744 -13.6412,0 -24.3277,-3.8412 -32.0593,-11.4744 -7.7316,-7.6332 -11.6221,-18.2211 -11.6221,-31.8131 v -61.0653 h 11.8684 v 61.0653 c 0,9.997 2.8562,17.7779 8.5195,23.392 5.7126,5.6141 13.4443,8.4211 23.2935,8.4211 9.8985,0 17.6301,-2.807 23.195,-8.3719 5.6141,-5.5648 8.3719,-13.3949 8.3719,-23.4904 v -61.0653 h 11.8683 v 61.0653 c 0.049,13.6412 -3.792,24.2291 -11.5237,31.8623 z"
     id="path369"
     style="stroke-width:0.492462" /><path
     fill="#6d6e71"
     d="m 2545.7839,1117.7868 -62.198,-83.2754 v 83.2754 h -11.8683 v -103.7126 h 12.3115 l 62.198,83.3739 v -83.3739 h 11.7206 v 103.7126 z"
     id="path371"
     style="stroke-width:0.492462" /><path
     fill="#6d6e71"
     d="m 2697.9055,1020.9195 c 8.0764,4.5799 14.4784,10.7849 19.1568,18.6643 4.7276,7.8794 7.0422,16.6945 7.0422,26.3468 0,9.6522 -2.3638,18.5165 -7.0422,26.3959 -4.6784,7.9287 -11.1297,14.1337 -19.3538,18.6644 -8.1748,4.5306 -17.3347,6.7959 -27.3316,6.7959 h -41.5146 v -103.7126 h 41.9578 c 9.9969,0 19.009,2.2654 27.0854,6.8453 z m -57.1749,85.5899 h 30.2372 c 7.6332,0 14.5769,-1.7236 20.8312,-5.2201 6.2542,-3.4965 11.2281,-8.3226 14.8723,-14.5276 3.6442,-6.1558 5.4664,-13.0502 5.4664,-20.6834 0,-7.6332 -1.8714,-14.4784 -5.5648,-20.6342 -3.6935,-6.1558 -8.7167,-10.9819 -15.0694,-14.5769 -6.3035,-3.5457 -13.2965,-5.3678 -20.9789,-5.3678 h -29.794 z"
     id="path373"
     style="stroke-width:0.492462" /><path
     fill="#6d6e71"
     d="m 2791.5718,1091.5878 -11.5728,26.199 h -12.6071 l 46.4885,-103.7126 h 12.3115 l 46.3407,103.7126 h -12.804 l -11.5729,-26.199 z m 28.1689,-64.0201 -23.0965,52.595 h 46.4884 z"
     id="path375"
     style="stroke-width:0.492462" /><path
     fill="#6d6e71"
     d="m 2950.3417,1025.4994 v 92.2874 h -11.8191 v -92.2874 h -33.6844 v -11.4252 h 79.4834 v 11.4252 z"
     id="path377"
     style="stroke-width:0.492462" /><path
     fill="#6d6e71"
     d="m 3041.3979,1117.7868 v -103.7126 h 11.8684 v 103.7126 z"
     id="path379"
     style="stroke-width:0.492462" /><path
     fill="#6d6e71"
     d="m 3197.9025,1020.7717 c 8.2733,4.6292 14.8723,10.9819 19.6984,18.9106 4.8262,7.9779 7.2885,16.6944 7.2885,26.2483 0,9.6029 -2.4131,18.418 -7.2885,26.3959 -4.8261,8.0271 -11.4251,14.3307 -19.6984,19.009 -8.2734,4.6785 -17.384,7.0423 -27.1839,7.0423 -9.997,0 -19.1076,-2.3146 -27.4302,-7.0423 -8.2734,-4.6783 -14.8723,-11.0311 -19.6985,-19.009 -4.8261,-8.0271 -7.2884,-16.793 -7.2884,-26.3959 0,-9.6031 2.413,-18.3689 7.2884,-26.3468 4.8262,-7.9779 11.4251,-14.2814 19.6985,-18.8613 8.2734,-4.6291 17.4332,-6.8945 27.4302,-6.8945 9.8492,-0.049 18.9105,2.2654 27.1839,6.9437 z m -48.3106,9.8001 c -6.4512,3.6442 -11.6221,8.6181 -15.4633,14.823 -3.8412,6.2051 -5.8111,13.0503 -5.8111,20.5358 0,7.5346 1.9206,14.4291 5.8111,20.6834 3.8412,6.2542 9.0121,11.2281 15.4633,14.8723 6.4513,3.6443 13.4935,5.4664 21.1267,5.4664 7.6331,0 14.6261,-1.8221 21.0281,-5.4664 6.402,-3.6442 11.4744,-8.5688 15.3156,-14.8723 3.7919,-6.2543 5.7125,-13.1488 5.7125,-20.6834 0,-7.5347 -1.9206,-14.38 -5.7125,-20.585 -3.792,-6.205 -8.9136,-11.1296 -15.3156,-14.7738 -6.402,-3.6443 -13.395,-5.5156 -20.9789,-5.5156 -7.6824,0 -14.6754,1.8221 -21.1759,5.5156 z"
     id="path381"
     style="stroke-width:0.492462" /><path
     fill="#6d6e71"
     d="m 3361.7939,1117.7868 -62.1979,-83.2754 v 83.2754 h -11.8684 v -103.7126 h 12.3116 l 62.1979,83.3739 v -83.3739 h 11.7206 v 103.7126 z"
     id="path383"
     style="stroke-width:0.492462" /><path
     fill="url(#SVGID_1_)"
     d="M 605.77788,6.7426084 C 583.46934,19.940598 546.38693,57.219995 502.11457,111.29235 l 40.67738,76.77488 c 28.56281,-40.82513 57.56885,-77.56281 86.82113,-108.932664 2.2653,-2.511555 3.44724,-3.693465 3.44724,-3.693465 -1.13271,1.231155 -2.26536,2.46231 -3.44724,3.693465 -9.45528,10.4402 -38.16585,43.927634 -81.50253,110.508544 41.71156,-2.06834 105.83012,-10.63719 158.12965,-19.55075 C 721.802,82.926527 690.97385,43.03708 690.97385,43.03708 c 0,0 -39.24924,-63.429145 -85.19597,-36.2944716 z"
     id="path392"
     style="fill:url(#SVGID_1_);stroke-width:0.492462" /><path
     fill="none"
     d="m 536.88241,444.73859 c 0.29548,-0.0492 0.59095,-0.0985 0.88643,-0.14774 l -5.8603,0.6402 c -0.34473,0.14773 -0.68945,0.34472 -1.03418,0.49246 2.0191,-0.34473 4.0382,-0.68945 6.00805,-0.98492 z"
     id="path394"
     style="stroke-width:0.492462" /><path
     fill="none"
     d="m 495.36783,582.23406 c -3.29949,0.73869 -6.74673,1.32965 -10.19397,1.82211 3.49648,-0.49246 6.89448,-1.08342 10.19397,-1.82211 z"
     id="path396"
     style="stroke-width:0.492462" /><path
     fill="none"
     d="m 213.18693,890.76167 c 0.44322,-1.13265 0.88644,-2.31453 1.2804,-3.44724 8.96282,-23.63815 17.82714,-46.63616 26.59297,-68.99391 9.84925,-25.11561 19.6,-49.44326 29.20301,-73.03218 10.14473,-24.8201 20.14171,-48.85229 29.99096,-72.04723 10.34171,-24.32765 20.53567,-47.76888 30.53266,-70.32363 8.12563,-18.36885 16.15276,-36.14673 24.08141,-53.33367 2.65929,-5.76181 5.26934,-11.42513 7.87939,-17.0392 5.17086,-11.17889 10.34172,-22.06231 15.41408,-32.74874 4.67839,-9.84925 9.35678,-19.5015 13.93668,-28.95678 1.52663,-3.15176 3.05327,-6.30352 4.5799,-9.40603 0.24623,-0.49247 0.49246,-0.98493 0.73869,-1.52664 l -5.02311,0.54171 -3.9397,-7.83015 c -0.39397,0.78794 -0.78794,1.52663 -1.18191,2.26533 -7.14071,14.18291 -14.23217,28.51356 -21.22513,42.94271 -4.03819,8.32261 -8.07638,16.74372 -12.11457,25.11558 -11.12965,23.34271 -22.06231,46.88241 -32.79799,70.56985 -10.88342,23.93366 -21.5206,48.01509 -31.96081,72.14575 -10.24321,23.68738 -20.33869,47.37483 -30.13869,71.01304 -9.84924,23.63822 -19.45226,47.12861 -28.80904,70.52061 -9.8,24.37688 -19.30452,48.606 -28.56282,72.49044 -2.06834,5.36784 -4.18593,10.78492 -6.25427,16.15277 -7.38693,19.30449 -14.62613,38.31359 -21.66834,57.12563 l 6.25428,12.36079 5.61406,-0.59097 c 0.19699,-0.54168 0.39397,-1.13265 0.64021,-1.67433 9.11055,-24.72163 18.07336,-48.85229 26.93768,-72.29351 z"
     id="path398"
     style="stroke-width:0.492462" /><path
     fill="none"
     d="m 482.61306,584.45014 v 0 c 0.0492,0 0.0492,0 0.0492,-0.0492 0,0.0492 0,0.0492 -0.0492,0.0492 z"
     id="path400"
     style="stroke-width:0.492462" /><path
     fill="#be202e"
     d="m 469.11959,651.5235 c -5.2201,0.93566 -10.53869,1.87138 -16.00502,2.80704 -0.0492,0 -0.0492,0.0492 -0.0985,0.0492 2.75779,-0.39398 5.51558,-0.8372 8.17487,-1.28041 2.70854,-0.49244 5.31859,-1.03412 7.92864,-1.57586 z"
     id="path402"
     style="stroke-width:0.492462" /><path
     opacity="0.35"
     fill="#be202e"
     d="m 469.11959,651.5235 c -5.2201,0.93566 -10.53869,1.87138 -16.00502,2.80704 -0.0492,0 -0.0492,0.0492 -0.0985,0.0492 2.75779,-0.39398 5.51558,-0.8372 8.17487,-1.28041 2.70854,-0.49244 5.31859,-1.03412 7.92864,-1.57586 z"
     id="path404"
     style="stroke-width:0.492462" /><path
     fill="#be202e"
     d="m 482.7608,584.40089 c -0.0492,0 -0.0492,0 0,0 -0.0492,0.0492 -0.0985,0.0492 -0.0985,0.0492 0.88643,-0.0985 1.72362,-0.24623 2.5608,-0.39397 3.44723,-0.49247 6.84523,-1.08342 10.19397,-1.82211 -4.18593,0.73869 -8.37186,1.42814 -12.65628,2.16683 v 0 z"
     id="path406"
     style="stroke-width:0.492462" /><path
     opacity="0.35"
     fill="#be202e"
     d="m 482.7608,584.40089 c -0.0492,0 -0.0492,0 0,0 -0.0492,0.0492 -0.0985,0.0492 -0.0985,0.0492 0.88643,-0.0985 1.72362,-0.24623 2.5608,-0.39397 3.44723,-0.49247 6.84523,-1.08342 10.19397,-1.82211 -4.18593,0.73869 -8.37186,1.42814 -12.65628,2.16683 v 0 z"
     id="path408"
     style="stroke-width:0.492462" /><path
     fill="url(#SVGID_2_)"
     d="m 422.82814,386.43105 c 12.3608,-23.09649 24.86934,-45.7005 37.52562,-67.66433 13.14875,-22.85024 26.44523,-44.9618 39.84021,-66.33467 0.78793,-1.2804 1.57588,-2.5608 2.36381,-3.79196 13.29649,-21.02814 26.69146,-41.21909 40.18493,-60.52361 l -40.67739,-76.82413 c -3.05326,3.74272 -6.15578,7.53468 -9.25829,11.42513 -11.7206,14.62613 -23.93367,30.33568 -36.39296,47.03015 -14.08443,18.81206 -28.56282,38.85528 -43.23819,59.93266 -13.59197,19.45226 -27.33166,39.84021 -41.12061,60.91759 -11.7206,17.97488 -23.49045,36.44221 -35.16181,55.40201 -0.44321,0.68945 -0.88643,1.42814 -1.2804,2.11759 l 52.9397,104.54974 c 11.22814,-22.45627 22.70251,-44.56783 34.27538,-66.23617 z"
     id="path419"
     style="fill:url(#SVGID_2_);stroke-width:0.492462" /><path
     fill="url(#SVGID_3_)"
     d="m 181.71859,975.56372 c -6.99297,19.25526 -14.03517,38.85528 -21.12663,58.89848 -0.0985,0.2955 -0.19699,0.591 -0.29548,0.8864 -0.98493,2.8071 -2.01909,5.6633 -3.00402,8.4704 -4.77689,13.4935 -8.86432,25.6573 -18.36884,53.2844 15.61105,7.1407 28.11959,25.8543 39.93869,47.0794 -1.2804,-22.013 -10.34171,-42.6472 -27.67638,-58.6522 76.87336,3.4472 143.10955,-15.9558 177.33567,-72.195 3.05327,-5.0231 5.86031,-10.2925 8.37186,-15.85734 -15.5618,19.74774 -34.86633,28.11964 -71.1608,26.10054 -0.0985,0.049 -0.14774,0.049 -0.24623,0.098 0.0985,-0.049 0.14774,-0.049 0.24623,-0.098 53.4814,-23.93371 80.3206,-46.93166 104.00804,-84.99903 5.61407,-9.01207 11.0804,-18.91057 16.64522,-29.84319 -46.73467,48.01504 -100.95477,61.70552 -158.03115,51.31458 l -42.79497,4.67835 c -1.18191,3.59499 -2.51156,7.18999 -3.84121,10.83421 z"
     id="path430"
     style="fill:url(#SVGID_3_);stroke-width:0.492462" /><path
     fill="url(#SVGID_4_)"
     d="m 201.71256,879.68129 c 9.25829,-23.88444 18.76282,-48.11356 28.56281,-72.49044 9.35679,-23.3427 18.9598,-46.88239 28.80905,-70.52061 9.84925,-23.63821 19.89548,-47.32566 30.13869,-71.01304 10.4402,-24.13066 21.12663,-48.16286 31.96081,-72.14575 10.73568,-23.68744 21.66834,-47.22714 32.79799,-70.56985 3.98894,-8.42111 8.02713,-16.79297 12.11457,-25.11558 6.99297,-14.42915 14.08442,-28.7598 21.22513,-42.94271 0.39396,-0.78794 0.78793,-1.52664 1.1819,-2.26533 L 335.56382,348.06823 c -0.88644,1.42814 -1.72362,2.85628 -2.61005,4.23518 -12.36081,20.1417 -24.62312,40.72663 -36.6392,61.75477 -12.16382,21.22513 -24.13065,42.89347 -35.80201,64.85729 -9.84924,18.51658 -19.50151,37.23015 -28.85829,56.09146 -1.87136,3.8412 -3.74271,7.63316 -5.56483,11.42512 -11.52361,23.73668 -21.96381,46.68542 -31.36985,68.69847 -10.68643,24.96786 -20.04321,48.85229 -28.31658,71.45632 -5.41708,14.87237 -10.3417,29.25222 -14.82311,43.04117 -3.69347,11.81911 -7.2392,23.58899 -10.58794,35.3588 -7.8794,27.72565 -14.72463,55.35278 -20.28945,82.88145 l 53.13668,105.09143 c 7.04222,-18.76281 14.23216,-37.82114 21.66835,-57.12563 2.01909,-5.36785 4.13668,-10.73569 6.20502,-16.15277 z"
     id="path441"
     style="fill:url(#SVGID_4_);stroke-width:0.492462" /><path
     fill="url(#SVGID_5_)"
     d="m 119.91457,851.66018 c -6.69749,33.58594 -11.42512,67.07336 -13.78894,100.36385 -0.0985,1.18188 -0.19699,2.31453 -0.24623,3.49647 -16.595985,-26.593 -61.06533,-52.59498 -60.966837,-52.29952 31.813065,46.14372 55.992967,91.94275 59.538697,136.90452 -17.039203,3.4965 -40.381914,-1.5759 -67.368848,-11.4744 28.1196,25.8543 49.246229,32.995 57.470354,34.9156 -25.854272,1.6251 -52.742716,19.3538 -79.828143,39.791 39.643216,-16.1528 71.653263,-22.5548 94.602007,-17.3839 C 72.933667,1188.8984 36.491457,1302.5587 0,1423.2119 c 11.178894,-3.2995 17.827136,-10.7849 21.619095,-20.9789 6.500502,-21.8653 49.640198,-165.2703 117.206035,-353.6864 1.9206,-5.3678 3.8412,-10.7357 5.81105,-16.202 0.54171,-1.4774 1.08342,-3.004 1.62512,-4.5306 7.14071,-19.7478 14.52764,-39.93872 22.21005,-60.52368 1.72362,-4.67835 3.49649,-9.35676 5.26935,-14.08441 0.0492,-0.0985 0.0492,-0.19699 0.0985,-0.29545 L 120.70251,847.91749 c -0.24623,1.2804 -0.54171,2.51152 -0.78794,3.74269 z"
     id="path452"
     style="fill:url(#SVGID_5_);stroke-width:0.492462" /><path
     fill="url(#SVGID_6_)"
     d="m 396.72764,461.43306 c -1.52664,3.10251 -3.05327,6.25427 -4.57991,9.40603 -4.5799,9.45528 -9.25829,19.10753 -13.93668,28.95678 -5.07236,10.68643 -10.19397,21.61909 -15.41407,32.74874 -2.61005,5.61407 -5.2201,11.27739 -7.8794,17.0392 -7.92864,17.23618 -15.95578,35.01407 -24.0814,53.33367 -9.99699,22.55475 -20.19096,45.99598 -30.53267,70.32363 -9.84924,23.19494 -19.84623,47.22713 -29.99095,72.04723 -9.60302,23.58892 -19.35377,47.91657 -29.20301,73.03218 -8.76583,22.35775 -17.6794,45.35576 -26.59297,68.99391 -0.44321,1.13271 -0.88643,2.31459 -1.2804,3.44724 -8.86432,23.44122 -17.82714,47.57188 -26.88844,72.29351 -0.19699,0.54168 -0.39397,1.13265 -0.6402,1.67433 l 42.79497,-4.67835 c -0.83719,-0.14776 -1.72362,-0.24623 -2.56081,-0.44322 51.16684,-6.40203 119.22513,-44.61709 163.20201,-91.84422 20.24021,-21.76684 38.6583,-47.42413 55.64825,-77.46431 12.65627,-22.35781 24.52462,-47.1779 35.85125,-74.60804 9.89849,-23.98296 19.40302,-49.93571 28.56282,-78.10457 -11.76985,6.20503 -25.21408,10.73569 -40.08644,13.88747 -2.61005,0.54168 -5.26935,1.08342 -7.92864,1.52663 -2.70855,0.49244 -5.41708,0.88642 -8.17487,1.2804 v 0 0 c 0.0492,0 0.0492,-0.0492 0.0985,-0.0492 47.71959,-18.36889 77.80904,-53.7769 99.67437,-97.21208 -12.55779,8.56885 -32.94573,19.74774 -57.42111,25.16482 -3.29949,0.7387 -6.74673,1.32965 -10.19397,1.82212 -0.83718,0.14774 -1.72362,0.29548 -2.5608,0.39396 v 0 0 c 0.0492,0 0.0492,0 0.0492,-0.0492 0,0 0.0492,0 0.0492,0 v 0 c 16.54673,-6.94372 30.53267,-14.67538 42.64724,-23.83517 2.61005,-1.96985 5.12161,-3.98895 7.53467,-6.05729 3.69347,-3.20101 7.2392,-6.54975 10.58794,-10.09547 2.16683,-2.26534 4.23517,-4.57991 6.25427,-6.99297 4.72764,-5.66332 9.20905,-11.76985 13.34573,-18.36885 1.2804,-2.01909 2.51156,-4.08743 3.74271,-6.20502 1.57588,-3.05327 3.10251,-6.05729 4.5799,-9.01206 6.64824,-13.39497 12.01608,-25.36181 16.25126,-35.85126 2.11759,-5.2201 3.98894,-10.09548 5.56482,-14.62613 0.6402,-1.82211 1.23116,-3.54573 1.82211,-5.2201 1.67438,-5.02312 3.05327,-9.50452 4.13669,-13.44422 1.62512,-5.90954 2.61005,-10.58794 3.15176,-13.98593 v 0 0 c -1.62513,1.2804 -3.49648,2.56081 -5.56483,3.79196 -14.42914,8.61809 -39.15075,16.44824 -59.04623,20.09246 l 39.29849,-4.33366 -39.29849,4.33366 c -0.29548,0.0492 -0.59096,0.0985 -0.88643,0.14774 -1.96985,0.34472 -3.98894,0.6402 -6.00804,0.98492 0.34472,-0.14773 0.68945,-0.34472 1.03417,-0.49246 L 397.41705,459.9065 c -0.19698,0.5417 -0.44322,1.03417 -0.68945,1.52663 z"
     id="path463"
     style="fill:url(#SVGID_6_);stroke-width:0.492462" /><path
     fill="url(#SVGID_7_)"
     d="m 548.0613,189.64311 c -11.96684,18.36884 -25.01709,39.2 -39.10151,62.78894 -0.73869,1.23116 -1.47738,2.51156 -2.21608,3.74272 -12.11457,20.43718 -25.01708,42.89346 -38.5598,67.46733 -11.7206,21.22513 -23.88442,43.97689 -36.58994,68.45227 -11.03116,21.32361 -22.45629,43.92763 -34.17689,67.8613 l 134.44221,-14.72462 c 39.15075,-18.02412 56.68241,-34.32463 73.67236,-57.91357 4.53065,-6.5005 9.06131,-13.29649 13.54273,-20.33869 13.78895,-21.56985 27.38091,-45.30654 39.44624,-68.89548 11.67135,-22.801 22.01306,-45.40502 29.89242,-65.74372 5.02316,-12.95176 9.06131,-25.01709 11.86834,-35.60503 2.46235,-9.35678 4.38296,-18.17185 5.86029,-26.6422 -52.201,8.91356 -116.36881,17.48241 -158.08037,19.55075 z"
     id="path474"
     style="fill:url(#SVGID_7_);stroke-width:0.492462" /><path
     fill="#be202e"
     d="m 461.19095,653.05013 c -2.70855,0.49245 -5.41708,0.88643 -8.17487,1.28041 v 0 c 2.75779,-0.34475 5.46632,-0.78796 8.17487,-1.28041 z"
     id="path476"
     style="stroke-width:0.492462" /><path
     opacity="0.35"
     fill="#be202e"
     d="m 461.19095,653.05013 c -2.70855,0.49245 -5.41708,0.88643 -8.17487,1.28041 v 0 c 2.75779,-0.34475 5.46632,-0.78796 8.17487,-1.28041 z"
     id="path478"
     style="stroke-width:0.492462" /><path
     fill="url(#SVGID_8_)"
     d="m 461.19095,653.05013 c -2.70855,0.49245 -5.41708,0.88643 -8.17487,1.28041 v 0 c 2.75779,-0.34475 5.46632,-0.78796 8.17487,-1.28041 z"
     id="path489"
     style="fill:url(#SVGID_8_);stroke-width:0.492462" /><path
     fill="#be202e"
     d="m 482.61306,584.45014 c 0.88644,-0.0985 1.72362,-0.24623 2.5608,-0.39397 -0.83718,0.14774 -1.67436,0.29548 -2.5608,0.39397 z"
     id="path491"
     style="stroke-width:0.492462" /><path
     opacity="0.35"
     fill="#be202e"
     d="m 482.61306,584.45014 c 0.88644,-0.0985 1.72362,-0.24623 2.5608,-0.39397 -0.83718,0.14774 -1.67436,0.29548 -2.5608,0.39397 z"
     id="path493"
     style="stroke-width:0.492462" /><path
     fill="url(#SVGID_9_)"
     d="m 482.61306,584.45014 c 0.88644,-0.0985 1.72362,-0.24623 2.5608,-0.39397 -0.83718,0.14774 -1.67436,0.29548 -2.5608,0.39397 z"
     id="path504"
     style="fill:url(#SVGID_9_);stroke-width:0.492462" /><path
     fill="#be202e"
     d="m 482.71155,584.40089 c 0,0 0,0 0,0 v 0 0 0 c 0,0 0,0 0,0 z"
     id="path506"
     style="stroke-width:0.492462" /><path
     opacity="0.35"
     fill="#be202e"
     d="m 482.71155,584.40089 c 0,0 0,0 0,0 v 0 0 0 c 0,0 0,0 0,0 z"
     id="path508"
     style="stroke-width:0.492462" /><path
     fill="url(#SVGID_10_)"
     d="m 482.71155,584.40089 c 0,0 0,0 0,0 v 0 0 0 c 0,0 0,0 0,0 z"
     id="path519"
     style="fill:url(#SVGID_10_);stroke-width:0.492462" /></g>
</svg>
