<?xml version="1.0" encoding="UTF-8" standalone="no"?>
<svg
   width="295"
   height="31"
   viewBox="0 0 295 31"
   fill="none"
   version="1.1"
   id="svg20"
   sodipodi:docname="autodesk.svg"
   inkscape:version="1.2.1 (9c6d41e410, 2022-07-14)"
   xmlns:inkscape="http://www.inkscape.org/namespaces/inkscape"
   xmlns:sodipodi="http://sodipodi.sourceforge.net/DTD/sodipodi-0.dtd"
   xmlns="http://www.w3.org/2000/svg"
   xmlns:svg="http://www.w3.org/2000/svg"
   xmlns:rdf="http://www.w3.org/1999/02/22-rdf-syntax-ns#"
   xmlns:cc="http://creativecommons.org/ns#"
   xmlns:dc="http://purl.org/dc/elements/1.1/">
  <title
     id="title841">Autodesk logo</title>
  <defs
     id="defs24" />
  <sodipodi:namedview
     id="namedview22"
     pagecolor="#ffffff"
     bordercolor="#111111"
     borderopacity="1"
     inkscape:pageshadow="0"
     inkscape:pageopacity="0"
     inkscape:pagecheckerboard="1"
     showgrid="false"
     width="100px"
     height="11px"
     inkscape:zoom="2.8183615"
     inkscape:cx="125.7823"
     inkscape:cy="-1.9514885"
     inkscape:window-width="3840"
     inkscape:window-height="2050"
     inkscape:window-x="-12"
     inkscape:window-y="-12"
     inkscape:window-maximized="1"
     inkscape:current-layer="svg20"
     inkscape:showpageshadow="0"
     inkscape:deskcolor="#d1d1d1" />
  <path
     id="path2-1"
     style="fill:#000000;stroke-width:0.878228"
     d="m 160.62104,0.41597954 c -10.43419,0 -15.83895,6.41841526 -15.83895,15.06191546 0,8.677746 5.40476,15.130528 15.83895,15.13052 10.46847,0 15.87325,-6.452774 15.87325,-15.13052 0.016,-8.6435002 -5.40478,-15.06191546 -15.87325,-15.06191546 z m 90.45041,0 c -8.82616,0 -13.25572,3.50878386 -13.25572,9.72223146 0,5.04892 2.94224,7.427394 9.03096,8.07728 l 6.77367,0.720418 c 2.58286,0.290694 3.76333,1.282571 3.76333,2.583223 0,1.471904 -1.72678,2.790764 -5.88342,2.790764 -4.80652,0 -6.74031,-1.216227 -7.06526,-3.663843 h -7.02923 c 0.32494,6.606883 4.61758,9.979526 13.8372,9.979526 8.41516,0 13.11851,-3.698153 13.11851,-9.26083 0,-4.843417 -2.78652,-7.752769 -8.05499,-8.35172 l -6.67075,-0.753008 c -3.90021,-0.427694 -4.87485,-1.403938 -4.87485,-2.7221573 0,-1.4719056 2.00086,-2.7890511 5.91774,-2.7890511 3.76321,0 5.73007,1.4043637 6.08925,3.5094694 h 7.16821 C 263.57603,4.1818362 258.4951,0.41597954 251.07145,0.41597954 Z M 87.378369,1.1003802 V 19.688918 c 0,8.283425 7.388421,10.868043 13.579931,10.868043 6.15812,0 13.513,-2.584618 13.513,-10.868043 V 1.1003802 h -7.32084 V 18.85014 h 0.0344 c 0,3.731582 -2.29073,5.236766 -6.20761,5.236766 -3.797449,0 -6.277952,-1.573686 -6.277952,-5.236766 V 1.1003802 Z M 25.95404,1.2032938 0.3482729,17.119424 V 29.90515 H 0.56956721 L 26.243954,13.920415 h 13.324332 c 0.410997,0 0.787302,0.324497 0.787302,0.787324 0,0.375879 -0.170939,0.530651 -0.375648,0.650088 l -12.607325,7.564402 c -0.821155,0.4962 -1.111513,1.471619 -1.111513,2.207572 l -0.01838,4.775349 H 42.27035 V 2.1964411 c 0,-0.5304466 -0.410106,-0.9931494 -1.025746,-0.9931494 z m 40.043318,0 L 54.99723,29.906875 h 7.560974 l 1.91599,-5.375709 H 76.75563 l 1.881666,5.375709 h 7.816538 L 75.318204,1.2032946 Z m 51.827332,0 V 7.416056 h 9.25396 v 22.490819 h 7.30367 V 7.4160572 h 9.21967 V 1.2032946 Z m 62.6542,0 V 29.906875 h 13.41183 c 10.28049,0 13.11848,-3.83516 13.11848,-14.5662 0,-10.0811558 -2.71853,-14.1373812 -13.11848,-14.1373812 z m 30.61956,0 V 29.906875 h 23.09115 v -6.214487 h -15.77033 v -5.202449 h 12.69141 V 12.260024 H 218.41927 V 7.4160572 H 234.1896 V 1.2032946 Z m 56.99206,0 0.0344,28.7035812 h 7.28822 V 19.004517 l 9.88692,10.902358 h 9.25393 L 281.21078,15.735192 294.55393,1.2032946 h -8.70676 L 275.41308,12.858658 V 1.2032946 Z M 160.62104,6.8688889 c 5.45643,0 8.3826,3.3370201 8.3826,8.6090081 0.016,5.391429 -2.92617,8.677623 -8.3826,8.677623 -5.40548,0 -8.38089,-3.303757 -8.38089,-8.677623 0,-5.271988 2.97541,-8.6090081 8.38089,-8.6090081 z M 70.666356,7.1776376 74.616664,18.421323 H 66.645746 Z M 187.7843,7.4160613 h 5.8148 c 4.58436,0 5.95204,1.2492233 5.95204,7.9246187 0,6.09313 -1.53894,8.351713 -5.95204,8.351713 h -5.8148 z" />
  <metadata
     id="metadata839">
    <rdf:RDF>
      <cc:Work
         rdf:about="">
        <dc:title>Autodesk logo</dc:title>
        <dc:date>21 sep 2021</dc:date>
        <cc:license
           rdf:resource="http://scripts.sil.org/OFL" />
      </cc:Work>
      <cc:License
         rdf:about="http://scripts.sil.org/OFL">
        <cc:permits
           rdf:resource="http://scripts.sil.org/pub/OFL/Reproduction" />
        <cc:permits
           rdf:resource="http://scripts.sil.org/pub/OFL/Distribution" />
        <cc:permits
           rdf:resource="http://scripts.sil.org/pub/OFL/Embedding" />
        <cc:permits
           rdf:resource="http://scripts.sil.org/pub/OFL/DerivativeWorks" />
        <cc:requires
           rdf:resource="http://scripts.sil.org/pub/OFL/Notice" />
        <cc:requires
           rdf:resource="http://scripts.sil.org/pub/OFL/Attribution" />
        <cc:requires
           rdf:resource="http://scripts.sil.org/pub/OFL/ShareAlike" />
        <cc:requires
           rdf:resource="http://scripts.sil.org/pub/OFL/DerivativeRenaming" />
        <cc:requires
           rdf:resource="http://scripts.sil.org/pub/OFL/BundlingWhenSelling" />
      </cc:License>
    </rdf:RDF>
  </metadata>
</svg>
