<?xml version="1.0" encoding="UTF-8" standalone="no"?>
<!-- Created with Inkscape (http://www.inkscape.org/) -->
<svg xmlns:dc="http://purl.org/dc/elements/1.1/" xmlns:cc="http://creativecommons.org/ns#" xmlns:rdf="http://www.w3.org/1999/02/22-rdf-syntax-ns#" xmlns:svg="http://www.w3.org/2000/svg" xmlns="http://www.w3.org/2000/svg" xmlns:sodipodi="http://sodipodi.sourceforge.net/DTD/sodipodi-0.dtd" xmlns:inkscape="http://www.inkscape.org/namespaces/inkscape" width="467.66745mm" height="68.892601mm" viewBox="0 0 467.66745 68.892601" version="1.1" id="svg8" inkscape:version="0.92.3 (2405546, 2018-03-11)" sodipodi:docname="LabVIEW_Logo.svg">
  <defs id="defs2"/>
  <sodipodi:namedview id="base" pagecolor="#ffffff" bordercolor="#666666" borderopacity="1.0" inkscape:pageopacity="0.0" inkscape:pageshadow="2" inkscape:zoom="0.37339566" inkscape:cx="1448.8225" inkscape:cy="118.71088" inkscape:document-units="mm" inkscape:current-layer="layer1" showgrid="false" showguides="true" inkscape:guide-bbox="true" fit-margin-top="0" fit-margin-left="0" fit-margin-right="0" fit-margin-bottom="0" inkscape:window-width="1920" inkscape:window-height="1017" inkscape:window-x="1912" inkscape:window-y="-8" inkscape:window-maximized="1">
    <sodipodi:guide position="14.174952,174.72886" orientation="1,0" id="guide880" inkscape:locked="false"/>
    <sodipodi:guide position="0.00084172699,146.00267" orientation="1,0" id="guide882" inkscape:locked="false"/>
  </sodipodi:namedview>
  <metadata id="metadata5">
    <rdf:RDF>
      <cc:Work rdf:about="">
        <dc:format>image/svg+xml</dc:format>
        <dc:type rdf:resource="http://purl.org/dc/dcmitype/StillImage"/>
        <dc:title/>
      </cc:Work>
    </rdf:RDF>
  </metadata>
  <g inkscape:label="Ebene 1" inkscape:groupmode="layer" id="layer1" transform="translate(274.22256,-118.03119)">
    <path style="fill:#ffde00;fill-opacity:1;stroke-width:1" d="m -267.62005,118.03119 c -2.57437,0 -4.68871,1.26673 -5.87769,3.52174 l -0.72398,1.37305 v 29.36875 c 0,32.31814 -0.0926,30.51712 1.66553,32.46313 1.09709,1.21434 2.04753,1.75565 3.58015,2.03915 0.60733,0.11255 1.52105,0.15875 2.03037,0.10336 0.53989,-0.0587 13.0462,-6.13672 29.99145,-14.57534 31.55597,-15.71468 30.57512,-15.15931 31.34537,-17.73019 0.76697,-2.55989 -0.0702,-5.66508 -1.89911,-7.04401 -0.45789,-0.34524 -13.84184,-7.12812 -29.74237,-15.0735 -27.70679,-13.84488 -28.97108,-14.44614 -30.36972,-14.44614 z" id="path868" inkscape:connector-curvature="0"/>
    <path style="fill:#4c4d4f;fill-opacity:1;stroke-width:1" d="m -127.88824,186.59433 c -3.58655,-0.57289 -7.31937,-2.32099 -9.46064,-4.43046 -2.48435,-2.44745 -3.90081,-5.93169 -3.90081,-9.59527 0,-8.72154 6.11687,-13.99899 18.52083,-15.97918 1.09141,-0.17424 4.60375,-0.39109 7.80521,-0.4819 l 5.82083,-0.1651 0.08,-1.39029 c 0.11435,-1.98697 -0.56393,-5.55625 -1.4172,-7.45759 -0.89311,-1.99012 -2.73488,-3.73757 -4.72351,-4.48161 -4.95273,-1.85305 -13.13146,-0.93046 -15.21326,1.71612 -0.44858,0.57028 -0.55417,1.07584 -0.55417,2.65321 v 1.9487 h -3.04271 -3.04271 v -3.05325 c 0,-3.44473 0.34554,-4.49931 1.90663,-5.81901 1.36452,-1.15353 4.34159,-2.4462 7.0892,-3.07818 3.26995,-0.75212 10.14775,-0.81789 13.22917,-0.1265 4.8189,1.08123 8.32837,3.61471 10.13704,7.31789 1.89198,3.87374 1.85735,3.53257 2.01977,19.89943 l 0.14631,14.7435 0.60238,0.60233 c 0.51933,0.51929 0.92969,0.61508 2.976561,0.6948 l 2.37419,0.0925 v 2.75179 2.7518 h -3.40347 c -7.337551,0 -8.509911,-0.84032 -8.761671,-6.28016 l -0.13799,-2.98156 -0.78957,1.52201 c -0.96628,1.86266 -4.52464,5.51638 -6.35418,6.52449 -2.59098,1.42767 -5.03652,2.06936 -8.20208,2.15217 -1.60072,0.0419 -3.2676,0.0191 -3.70417,-0.0507 z m 7.87971,-5.93396 c 3.62841,-1.21237 6.82359,-4.21785 8.7654,-8.24497 1.51671,-3.14551 1.98431,-4.95598 2.18744,-8.46934 l 0.16444,-2.84427 h -4.52401 c -9.6857,0 -15.89962,1.66239 -18.98674,5.07946 -1.57788,1.74653 -2.09525,3.16886 -2.09823,5.76846 -0.002,1.88387 0.11129,2.49186 0.69892,3.74527 0.73865,1.57557 2.42787,3.41769 3.78357,4.12605 2.81766,1.47224 7.0523,1.82734 10.00921,0.83934 z m 49.270293,5.71445 c -4.711306,-1.03715 -8.897864,-3.95776 -11.196046,-7.81053 l -0.7102,-1.19063 -0.0729,4.16719 -0.0729,4.16718 h -3.035986 -3.03599 V 155.40122 125.0944 l -0.64944,-0.64943 c -0.59379,-0.59379 -0.85447,-0.64943 -3.0427,-0.64943 h -2.39328 v -2.79955 -2.79955 l 4.69635,0.0876 c 5.45555,0.10172 6.12361,0.31985 7.143746,2.3325 0.5906,1.16518 0.59541,1.26886 0.60701,13.09082 l 0.0117,11.91633 0.55192,-1.05833 c 0.30356,-0.58208 1.518685,-2.013 2.700288,-3.17982 3.333358,-3.29166 6.771021,-4.74916 11.937949,-5.06146 12.137893,-0.73363 20.609915,7.43244 22.120416,21.32156 1.196422,11.00115 -2.700708,21.08031 -9.952326,25.73976 -4.53223,2.91213 -10.642539,4.08248 -15.607673,2.98945 z m 7.901551,-5.96658 c 7.598462,-2.34693 12.315869,-11.813 11.041594,-22.15635 -0.629253,-5.10768 -2.300319,-8.9322 -5.184812,-11.86636 -4.477229,-4.55432 -10.845723,-5.57934 -16.744648,-2.69509 -2.489539,1.21725 -5.187432,3.9563 -6.464824,6.56343 -2.815557,5.74652 -3.217457,13.57074 -1.023038,19.91659 2.928503,8.46868 10.480733,12.67629 18.375728,10.23778 z m -120.216774,5.01468 c -1.42992,-0.28702 -2.33206,-0.91663 -3.04311,-2.12379 -0.5181,-0.87959 -0.53193,-1.49789 -0.66146,-29.56297 l -0.13229,-28.66459 -0.62462,-0.50573 c -0.51585,-0.41764 -1.05727,-0.50572 -3.10886,-0.50572 h -2.48423 v -2.93103 -2.93103 l 4.96094,0.0868 c 4.61305,0.0807 5.02854,0.1288 5.92496,0.68624 0.53021,0.32972 1.18505,1.04409 1.45521,1.5875 0.46679,0.93895 0.49798,2.41374 0.62811,29.69531 0.0753,15.78901 0.16461,28.74314 0.19844,28.78694 0.0338,0.0438 0.4744,0.25217 0.97905,0.46302 0.75226,0.31431 2.93758,0.38338 12.13135,0.38338 7.61064,0 11.48761,-0.0954 12.06594,-0.29706 1.11175,-0.38755 1.3435,-1.06954 1.3435,-3.9535 v -2.36403 h 3.04271 3.04271 v 4.41439 c 0,5.24126 -0.31742,6.28973 -2.2107,7.30227 -1.09394,0.58504 -1.1344,0.58657 -16.70701,0.6295 -8.58573,0.0237 -16.14602,-0.0645 -16.80064,-0.19586 z m 158.517534,-0.30271 c -17.639411,-47.32902 -21.618795,-57.97528 -22.061559,-59.0225 -0.617977,-1.46162 -1.49235,-2.03759 -3.093238,-2.03759 h -1.071473 v -2.91041 -2.91042 l 2.711979,0.001 c 1.491589,8.2e-4 3.161718,0.12637 3.711398,0.27902 1.431277,0.39746 2.655012,1.58973 3.43884,3.3504 1.285523,2.88761 17.877993,48.62525 18.839484,51.9316 1.185283,4.07594 1.183256,4.06991 1.321647,3.93152 0.06214,-0.0621 0.635664,-1.89488 1.274505,-4.07277 1.13891,-3.88267 18.0370157,-50.40235 18.98734668,-52.2713 0.642408,-1.26337 2.11838602,-2.52692 3.35184702,-2.86945 0.64352,-0.17872 6.3932332,-0.27807 16.1468073,-0.27902 l 15.147395,-0.001 v 2.91042 2.91041 h -3.176217 -3.176217 l 0.06736,27.8474 0.06736,27.84739 3.108854,0.0745 3.108854,0.0745 v 2.90202 2.90202 h -9.524999 -9.525 v -2.90202 -2.90202 l 3.108854,-0.0745 3.108854,-0.0745 0.06736,-27.84739 0.06736,-27.8474 h -7.158117 c -8.0320093,0 -8.3085783,0.0539 -9.0734623,1.7677 -0.24802,0.55574 -5.38207502,14.22636 -11.408966,30.37918 l -10.9580357,29.36874 -3.592078,0.0736 c -3.52742,0.0723 -3.596138,0.0628 -3.816755,-0.52916 z m 75.109543,0.29683 c -1.427295,-0.27944 -2.33045,-0.908 -3.043105,-2.11791 -0.519351,-0.8817 -0.53049,-1.44002 -0.599837,-30.06869 l -0.07067,-29.17032 h -3.170476 -3.170476 v -2.91665 -2.91666 l 20.703646,0.0724 20.703645,0.0724 0.964,0.59949 c 1.6764,1.04247 1.93429,1.94756 2.03441,7.13958 l 0.088,4.56406 h -3.19685 -3.19685 v -2.77813 c 0,-4.22345 1.32111,-3.83645 -13.096876,-3.83645 H 53.483637 v 12.30313 12.30312 h 12.7 12.699997 v 2.90785 2.90786 l -12.633852,0.0687 -12.633854,0.0687 -0.07345,11.64166 c -0.0404,6.40292 -0.0063,11.9174 0.07554,12.25442 0.317129,1.30389 1.000627,1.37162 13.840565,1.37162 8.099791,0 12.146171,-0.0944 12.727381,-0.29705 1.11175,-0.38755 1.3435,-1.06954 1.3435,-3.9535 v -2.36403 h 3.04271 3.0427 v 4.30956 c 0,3.94759 -0.05,4.40742 -0.59531,5.47461 -0.75544,1.47844 -1.55572,2.04912 -3.34341,2.38415 -1.76262,0.33034 -31.402458,0.30893 -33.102538,-0.0239 z m 59.572573,-0.82677 c -0.15899,-0.62216 -3.6784,-14.15799 -7.8209,-30.07964 -8.494816,-32.6496 -7.649686,-30.19476 -10.465356,-30.39843 l -1.59922,-0.11568 v -2.87861 -2.87862 h 2.8624 c 4.50464,0 6.49642,0.90736 7.550376,3.43958 0.60053,1.44279 13.04857,51.19134 13.42282,53.64427 0.18317,1.20055 0.40849,2.18282 0.5007,2.18282 0.0922,0 0.3675,-0.86321 0.61179,-1.91823 0.24429,-1.05503 3.98802,-14.32918 8.31939,-29.49812 l 7.87524,-27.57989 3.34203,-0.003 3.34203,-0.003 0.31441,1.25678 c 0.17293,0.69122 3.346,12.86125 7.05125,27.0445 3.70528,14.18326 6.94018,26.89318 7.18873,28.24427 0.24852,1.3511 0.52334,2.45654 0.61068,2.45654 0.0874,0 0.31091,-0.8632 0.49681,-1.91823 0.39598,-2.24744 12.79197,-51.73345 13.36778,-53.36546 0.56925,-1.6134 1.35869,-2.59607 2.60699,-3.24512 0.91448,-0.47548 1.67677,-0.59245 4.47564,-0.68676 l 3.37344,-0.11367 v 2.9417 2.9417 h -1.20377 c -1.34986,0 -2.59813,0.53589 -2.90468,1.24699 -0.1121,0.26004 -3.7342,13.92687 -8.0491,30.37072 l -7.84529,29.89791 -3.96468,0.0727 -3.9647,0.0727 -6.56624,-24.51764 c -3.61146,-13.48471 -6.941,-26.28678 -7.39902,-28.44905 -0.458,-2.16227 -0.89226,-3.93103 -0.96502,-3.93058 -0.0728,4.5e-4 -0.64254,2.11371 -1.26616,4.69612 -0.62365,2.5824 -4.27067,15.35138 -8.10451,28.37549 l -6.97064,23.6802 -3.96708,0.0729 -3.96709,0.0729 z m -363.05005,-26.53119 v -3.57187 h -3.57188 -3.57187 v -2.51354 -2.51355 h 3.57187 3.57188 v -3.70416 -3.70417 h 2.51354 2.51354 v 3.70417 3.70416 h 3.70417 3.70417 v 2.51355 2.51354 h -3.70417 -3.70417 v 3.57187 3.57188 h -2.51354 -2.51354 z m 437.09166,-36.5125 v -2.51354 h -1.05833 c -0.76435,0 -1.05833,-0.11024 -1.05833,-0.39688 0,-0.32492 0.45566,-0.39687 2.51354,-0.39687 2.05787,0 2.51354,0.072 2.51354,0.39687 0,0.28664 -0.29398,0.39688 -1.05833,0.39688 h -1.05834 v 2.51354 c 0,2.05787 -0.0719,2.51354 -0.39687,2.51354 -0.32494,0 -0.39688,-0.45567 -0.39688,-2.51354 z m 3.57132,1.38906 c 0.0669,-0.61846 0.19315,-1.92815 0.28057,-2.91041 0.21677,-2.43527 0.773,-2.43886 1.83033,-0.0118 l 0.7729,1.77412 0.77902,-1.77412 c 1.06629,-2.42842 1.62372,-2.42487 1.85385,0.0118 0.27318,2.89251 0.21931,4.03489 -0.19026,4.03489 -0.25591,0 -0.42013,-0.56476 -0.55777,-1.91823 l -0.19508,-1.91823 -0.68757,1.38907 c -0.37817,0.76398 -0.84815,1.38906 -1.04439,1.38906 -0.19627,0 -0.61415,-0.61918 -0.92863,-1.37595 -0.52147,-1.25477 -0.58775,-1.31885 -0.75272,-0.7276 -0.0995,0.35659 -0.19277,1.21389 -0.20727,1.90511 -0.0225,1.06746 -0.10533,1.25677 -0.55049,1.25677 -0.45927,0 -0.50906,-0.13908 -0.40249,-1.12448 z" id="path872" inkscape:connector-curvature="0"/>
  </g>
</svg>